<?xml version="1.0" standalone="no"?>
<!DOCTYPE svg PUBLIC "-//W3C//DTD SVG 20010904//EN"
 "http://www.w3.org/TR/2001/REC-SVG-20010904/DTD/svg10.dtd">
<svg version="1.0" xmlns="http://www.w3.org/2000/svg"
 width="1449.000000pt" height="1449.000000pt" viewBox="0 0 1449.000000 1449.000000"
 preserveAspectRatio="xMidYMid meet">

<g transform="translate(0.000000,1449.000000) scale(0.100000,-0.100000)"
fill="#000000" stroke="none">
<path d="M12102 13583 c-36 -7 -22 -24 52 -61 157 -80 238 -198 256 -377 6
-55 17 -146 25 -201 10 -69 15 -195 16 -390 1 -159 4 -300 8 -313 10 -37 37
-50 58 -28 16 16 19 54 27 385 12 525 12 525 -13 621 -47 177 -114 277 -224
330 -61 30 -154 45 -205 34z"/>
<path d="M11401 13516 c-32 -39 -40 -317 -25 -921 9 -374 13 -405 53 -405 44
0 46 16 52 379 6 314 9 359 32 486 15 77 38 173 52 214 14 41 25 85 25 97 0
14 -25 52 -61 93 -48 56 -67 71 -89 71 -15 0 -33 -6 -39 -14z"/>
<path d="M8246 13368 c-16 -39 -31 -199 -30 -318 2 -241 24 -621 38 -690 42
-189 139 -305 291 -345 66 -17 142 -20 165 -5 18 11 22 9 -82 59 -218 104
-298 276 -298 648 0 62 5 159 11 215 13 113 -2 362 -25 428 -17 49 -52 54 -70
8z"/>
<path d="M9320 13375 c-7 -9 -17 -59 -23 -113 -10 -97 -11 -145 -7 -497 3
-215 -7 -284 -65 -435 -49 -126 -48 -135 29 -208 78 -75 96 -78 127 -22 11 20
13 86 11 355 -2 196 2 387 9 470 9 117 9 164 -4 288 -9 82 -21 155 -28 163
-15 18 -33 18 -49 -1z"/>
<path d="M2225 13281 c-204 -17 -313 -65 -462 -204 -75 -70 -99 -116 -131
-247 -64 -262 -49 -478 45 -669 90 -182 295 -321 472 -321 l56 0 -81 33 c-109
45 -172 86 -243 163 -64 68 -129 188 -151 279 -49 202 -22 476 62 623 80 140
279 275 448 303 199 32 482 -126 575 -323 52 -110 68 -197 68 -373 -1 -260
-55 -419 -194 -570 -48 -52 -35 -59 32 -17 109 70 208 218 250 377 33 122 32
340 -3 496 -14 64 -35 134 -46 155 -61 117 -224 241 -367 278 -70 19 -216 26
-330 17z"/>
<path d="M4849 12503 c-11 -13 -15 -118 -21 -542 -3 -289 -9 -566 -13 -616 -5
-76 -3 -96 12 -125 15 -30 23 -35 53 -35 30 0 38 5 53 35 15 29 17 49 12 125
-4 50 -10 327 -13 616 -7 554 -8 559 -52 559 -10 0 -24 -7 -31 -17z"/>
<path d="M6815 11021 c-17 -7 -14 -10 20 -21 167 -54 272 -159 311 -310 14
-55 14 -72 4 -120 -11 -48 -21 -63 -79 -119 l-66 -63 30 -22 c159 -113 176
-243 64 -503 -53 -126 -52 -137 21 -207 56 -53 63 -57 102 -54 34 2 45 8 55
28 20 40 11 938 -11 1043 -31 156 -96 256 -199 307 -84 41 -202 60 -252 41z"/>
<path d="M13689 10904 c-11 -14 -15 -97 -20 -438 -7 -473 -7 -474 -84 -648
-25 -56 -45 -112 -45 -124 0 -22 78 -97 127 -123 33 -17 71 -13 93 9 20 20 20
29 14 653 -5 439 -10 640 -18 657 -14 30 -48 37 -67 14z"/>
<path d="M12629 10893 c-19 -22 -26 -837 -9 -958 17 -114 63 -253 101 -298 36
-43 104 -81 186 -102 83 -22 223 -19 223 5 0 4 -35 20 -77 35 -190 67 -284
183 -330 405 -12 57 -17 174 -22 486 -5 327 -9 414 -20 427 -17 21 -35 21 -52
0z"/>
<path d="M10740 10597 c0 -3 25 -19 56 -37 114 -64 199 -166 235 -281 49 -157
-7 -274 -151 -316 -33 -10 -60 -21 -60 -24 0 -9 155 -29 222 -29 73 0 103 12
123 49 20 40 19 97 -5 206 -41 185 -145 338 -272 398 -53 25 -148 47 -148 34z"/>
<path d="M10299 10533 c-158 -79 -280 -247 -329 -454 -20 -85 -22 -110 -17
-269 4 -112 12 -193 22 -226 31 -103 193 -316 288 -379 107 -70 260 -99 432
-84 158 15 332 85 298 120 -9 9 -33 8 -110 -5 -137 -22 -310 -21 -405 3 -163
42 -237 106 -320 279 -85 180 -87 258 -7 334 41 39 142 78 201 78 45 0 25 17
-29 24 -98 13 -193 78 -209 142 -32 128 77 332 241 451 44 32 27 28 -56 -14z"/>
<path d="M2617 10405 c-122 -42 -207 -182 -193 -317 16 -160 97 -232 476 -424
212 -107 268 -167 278 -296 9 -116 -69 -214 -203 -255 -90 -27 -301 -25 -412
5 -113 30 -151 29 -159 -3 -11 -43 4 -73 44 -94 111 -56 364 -72 514 -33 138
37 240 105 293 197 41 69 59 271 31 338 -17 42 -102 118 -181 162 -34 20 -126
62 -203 94 -163 68 -213 95 -264 145 -65 64 -91 119 -96 206 -4 68 -1 85 21
133 13 30 41 73 62 95 45 51 43 65 -8 47z"/>
<path d="M1250 10399 c-65 -26 -135 -106 -160 -183 -21 -65 -15 -171 14 -230
49 -99 137 -163 436 -316 179 -91 228 -129 266 -206 80 -164 -18 -324 -224
-364 -87 -18 -286 -8 -382 19 -97 27 -116 26 -135 -3 -52 -78 110 -147 344
-147 196 0 358 56 450 157 54 59 70 98 92 227 33 194 -57 288 -414 433 -62 25
-132 57 -156 71 -202 117 -250 329 -111 494 22 26 40 50 40 53 0 9 -32 6 -60
-5z"/>
<path d="M6375 10256 c-151 -70 -226 -280 -170 -473 36 -125 78 -170 186 -204
65 -20 203 -26 229 -9 18 11 17 12 -59 40 -74 27 -149 80 -191 136 -35 46 -70
149 -70 208 0 95 50 215 115 276 24 22 34 50 18 50 -5 0 -31 -11 -58 -24z"/>
<path d="M10989 8437 c-110 -73 -82 -229 48 -267 38 -12 46 -11 90 11 85 42
115 121 75 199 -25 50 -75 80 -132 80 -32 0 -58 -7 -81 -23z"/>
<path d="M10054 8160 c-73 -24 -93 -35 -98 -53 -3 -12 -6 -95 -6 -183 0 -121
-3 -164 -13 -172 -7 -7 -66 -13 -133 -14 l-119 -3 -3 -86 c-2 -63 1 -89 11
-97 8 -7 64 -13 133 -14 l119 -3 6 -520 c4 -377 9 -535 18 -575 31 -130 99
-221 198 -267 98 -45 295 -48 382 -6 l36 18 3 79 c2 44 -1 83 -5 87 -5 5 -26
2 -48 -6 -53 -19 -152 -19 -206 0 -57 20 -94 57 -116 114 -16 42 -18 92 -18
561 l0 515 184 3 c119 1 189 7 198 14 10 8 13 34 11 97 l-3 86 -186 3 c-139 2
-190 6 -198 15 -7 9 -12 91 -13 223 -3 245 8 230 -134 184z"/>
<path d="M746 7799 c-138 -16 -259 -75 -362 -176 -106 -104 -173 -229 -216
-400 -20 -76 -23 -114 -22 -283 0 -169 3 -206 22 -275 64 -234 215 -406 415
-472 71 -23 98 -27 202 -27 104 0 131 4 200 28 102 34 203 103 268 180 54 66
67 77 79 70 4 -3 8 -68 8 -145 0 -315 -88 -500 -280 -592 -83 -40 -208 -67
-306 -67 -95 0 -252 34 -365 79 -56 23 -107 41 -115 41 -11 0 -14 -20 -14 -89
0 -85 1 -91 26 -110 66 -52 281 -94 479 -94 178 1 301 26 432 89 106 51 205
140 262 237 54 92 101 244 112 360 5 56 8 442 7 857 l-3 755 -115 0 -115 0 -3
-97 c-2 -64 -7 -98 -14 -98 -6 0 -43 33 -82 73 -134 138 -275 182 -500 156z
m269 -205 c124 -32 224 -118 284 -244 l36 -75 3 -245 c3 -244 3 -245 -24 -329
-49 -150 -125 -240 -260 -303 -67 -32 -73 -33 -199 -33 -126 0 -132 1 -198 32
-130 62 -225 195 -262 366 -25 111 -17 360 15 467 57 196 178 324 345 366 71
17 190 17 260 -2z"/>
<path d="M3655 7800 c-101 -11 -189 -36 -280 -79 -114 -53 -115 -54 -115 -166
0 -52 4 -96 9 -100 6 -3 39 13 76 35 140 86 288 126 434 117 47 -3 103 -10
124 -17 59 -18 140 -103 167 -175 28 -75 39 -205 19 -222 -8 -6 -102 -23 -209
-38 -448 -62 -530 -88 -648 -207 -66 -66 -100 -137 -120 -249 -14 -80 -14 -95
1 -169 19 -97 44 -153 97 -213 141 -159 421 -203 635 -98 61 30 147 105 202
175 43 56 53 43 53 -73 0 -62 4 -101 12 -109 18 -18 202 -16 217 2 9 11 11
154 8 583 -4 632 -4 632 -74 765 -59 113 -172 200 -296 228 -66 14 -230 20
-312 10z m439 -955 c0 -142 -2 -154 -29 -219 -38 -93 -124 -185 -214 -229 -63
-31 -71 -32 -186 -32 -101 0 -127 3 -165 21 -100 46 -154 133 -153 249 1 165
61 239 234 289 65 19 441 75 484 73 l30 -2 -1 -150z"/>
<path d="M5482 7799 c-121 -15 -236 -89 -340 -216 -24 -30 -49 -52 -55 -50 -8
2 -14 44 -17 118 l-5 114 -110 0 -110 0 -3 -769 c-1 -560 1 -773 9 -782 15
-19 192 -20 207 -1 7 8 12 187 15 512 4 548 4 543 68 674 40 81 103 145 177
179 50 24 69 27 157 27 91 0 106 -3 167 -32 106 -50 167 -152 188 -313 5 -41
10 -291 10 -555 0 -361 3 -484 12 -493 17 -17 192 -16 206 1 7 8 12 182 14
502 5 545 5 548 74 675 74 136 178 209 307 218 142 9 256 -41 314 -137 64
-106 66 -129 70 -718 3 -427 7 -534 18 -543 8 -7 50 -10 111 -8 l99 3 0 575
c0 521 -2 581 -18 640 -44 161 -134 283 -251 340 -147 72 -395 58 -524 -28
-58 -39 -137 -115 -183 -179 -21 -28 -43 -54 -47 -57 -12 -7 -32 18 -57 68
-11 22 -46 68 -79 103 -69 75 -152 120 -247 133 -73 11 -89 11 -177 -1z"/>
<path d="M2701 7790 c-106 -22 -218 -123 -287 -256 -21 -41 -43 -73 -49 -71
-6 2 -12 62 -15 153 l-5 149 -115 0 -115 0 -3 -711 c-1 -392 1 -743 5 -780 l8
-69 99 -3 c64 -2 103 1 112 9 12 9 14 84 14 435 0 250 4 455 11 501 29 208
128 361 268 414 47 18 70 20 141 15 47 -3 100 -8 118 -12 l32 -6 0 110 c0 61
-4 113 -9 117 -18 11 -166 14 -210 5z"/>
<path d="M12335 7774 c-144 -15 -314 -80 -420 -161 -102 -79 -208 -231 -255
-368 -35 -101 -53 -248 -47 -374 7 -143 26 -220 82 -336 91 -187 239 -313 445
-376 63 -20 97 -23 210 -23 149 0 218 12 322 54 105 43 108 47 108 150 0 48
-3 89 -6 92 -3 4 -40 -11 -82 -33 -104 -52 -176 -69 -297 -69 -202 0 -343 70
-444 221 -109 163 -133 459 -56 666 68 180 220 316 393 352 130 27 298 4 420
-58 33 -16 62 -27 66 -24 3 4 6 53 6 110 l0 104 -42 18 c-97 41 -284 67 -403
55z"/>
<path d="M13630 7770 c-112 -11 -214 -41 -323 -96 -87 -44 -87 -44 -87 -156 0
-68 4 -98 12 -98 6 0 32 13 57 29 139 89 261 125 426 126 105 0 126 -3 173
-24 97 -44 153 -136 173 -286 9 -72 9 -89 -2 -100 -8 -7 -115 -26 -249 -45
-129 -17 -274 -40 -322 -51 -274 -63 -418 -231 -418 -487 0 -82 22 -172 57
-231 123 -210 440 -284 684 -160 60 30 164 122 206 183 14 20 25 27 37 23 13
-5 16 -22 16 -101 0 -52 3 -101 6 -110 9 -24 209 -24 218 0 3 9 6 260 6 559 0
439 -3 558 -15 621 -44 231 -200 377 -430 404 -98 11 -114 11 -225 0z m438
-907 c7 -242 -75 -406 -246 -490 -75 -38 -77 -38 -196 -38 -112 0 -125 2 -172
27 -105 55 -149 139 -142 267 8 143 65 212 214 259 75 24 447 82 504 79 l35
-2 3 -102z"/>
<path d="M10955 7728 c-3 -7 -4 -359 -3 -783 l3 -770 110 0 110 0 0 780 0 780
-108 3 c-80 2 -109 -1 -112 -10z"/>
<path d="M419 5049 c-21 -21 -21 -27 -14 -133 9 -115 11 -259 6 -531 -2 -88 1
-451 6 -806 8 -681 8 -679 53 -679 45 0 45 -2 53 679 5 355 8 716 6 801 -5
265 -3 421 6 536 7 106 7 112 -14 133 -12 12 -34 21 -51 21 -17 0 -39 -9 -51
-21z"/>
<path d="M1869 5053 c-17 -20 -16 -142 2 -257 8 -56 9 -118 3 -215 -5 -75 -8
-185 -7 -246 1 -60 6 -401 10 -756 8 -683 8 -679 54 -679 43 0 44 14 52 695 4
358 8 688 9 735 1 47 -2 155 -6 240 -6 109 -5 180 3 236 17 115 18 229 2 248
-19 22 -104 22 -122 -1z"/>
<path d="M9500 4930 c0 -11 20 -41 45 -65 69 -69 96 -56 55 25 -21 42 -46 60
-79 60 -14 0 -21 -6 -21 -20z"/>
<path d="M13154 4156 c-74 -18 -138 -51 -231 -117 -146 -106 -235 -232 -285
-405 -20 -68 -23 -100 -22 -234 1 -133 4 -169 27 -252 32 -119 81 -216 156
-305 76 -91 142 -139 226 -166 61 -19 91 -22 225 -21 216 1 359 35 360 85 0 3
-35 0 -77 -8 -106 -20 -271 -19 -357 1 -243 57 -426 268 -426 488 0 114 59
181 190 214 38 10 70 21 70 25 0 3 -24 11 -54 18 -66 15 -139 60 -167 103 -16
27 -19 46 -17 104 3 58 10 84 42 148 47 97 138 192 216 228 137 64 318 64 443
1 134 -67 237 -230 237 -374 0 -101 -78 -190 -187 -214 -53 -11 -38 -21 50
-33 205 -29 267 -3 267 112 0 69 -41 222 -80 304 -110 230 -366 356 -606 298z"/>
<path d="M9715 4056 c-13 -30 -15 -131 -15 -658 0 -659 1 -669 46 -676 49 -7
49 -13 52 658 3 675 1 702 -46 708 -18 3 -26 -4 -37 -32z"/>
<path d="M1153 3764 c-15 -24 -15 -29 -2 -53 29 -51 109 -33 109 24 0 56 -76
76 -107 29z"/>
<path d="M5070 3741 c0 -5 25 -19 55 -31 81 -33 184 -109 233 -172 102 -132
146 -287 146 -508 0 -171 -12 -237 -64 -345 -62 -130 -224 -291 -338 -336 -57
-22 -30 -24 57 -4 102 24 196 80 286 170 108 107 127 152 160 370 19 125 19
194 0 315 -35 231 -141 403 -302 488 -79 42 -233 77 -233 53z"/>
<path d="M4617 3700 c-135 -43 -261 -160 -328 -306 -81 -177 -97 -416 -42
-659 23 -102 46 -140 142 -235 140 -139 262 -190 454 -190 107 0 130 14 40 23
-131 14 -242 74 -363 196 -148 149 -192 265 -192 501 0 299 95 499 303 641 82
55 80 59 -14 29z"/>
<path d="M11055 2541 c-83 -24 -120 -45 -171 -98 -104 -109 -195 -272 -230
-413 -29 -114 -26 -338 4 -445 55 -190 168 -329 342 -420 94 -50 132 -81 202
-165 l38 -45 42 46 c24 25 65 63 91 83 27 21 45 42 40 46 -4 5 -66 18 -137 30
-194 32 -251 57 -347 153 -136 137 -198 325 -186 567 7 134 24 205 77 315 69
144 204 264 369 328 42 16 78 31 80 33 13 12 -163 0 -214 -15z"/>
<path d="M11475 2550 c28 -12 88 -12 80 0 -3 6 -27 10 -53 9 -35 0 -42 -3 -27
-9z"/>
<path d="M7375 2530 c-4 -7 -3 -16 3 -22 14 -14 45 -2 40 15 -6 16 -34 21 -43
7z"/>
<path d="M7975 2530 c-8 -14 3 -30 21 -30 8 0 14 9 14 20 0 21 -24 28 -35 10z"/>
<path d="M3048 2065 c-4 -5 27 -25 70 -46 138 -67 229 -190 239 -324 7 -86 -8
-122 -80 -194 l-62 -63 30 -21 c59 -43 111 -103 123 -144 26 -88 3 -215 -63
-348 -25 -49 -45 -99 -45 -111 0 -14 25 -43 71 -83 81 -70 108 -75 143 -28 24
32 23 2 13 617 -6 380 -12 439 -61 545 -54 118 -162 192 -297 202 -41 3 -77 2
-81 -2z"/>
<path d="M7119 1913 c-12 -13 -14 -110 -14 -537 l0 -521 37 -70 c87 -168 217
-256 378 -254 108 1 111 17 10 59 -114 47 -185 119 -253 255 -70 141 -70 135
-76 610 -6 449 -9 475 -50 475 -10 0 -25 -7 -32 -17z"/>
<path d="M8183 1904 c-15 -24 -18 -72 -24 -438 -7 -460 -6 -453 -83 -607 -25
-51 -46 -103 -46 -115 0 -14 25 -44 75 -88 88 -80 119 -85 147 -26 27 57 36
196 22 344 -8 78 -13 285 -13 509 -1 306 -4 384 -15 412 -18 42 -39 45 -63 9z"/>
<path d="M2563 1299 c-52 -25 -109 -87 -135 -145 -22 -52 -48 -178 -48 -238 0
-95 95 -222 204 -272 98 -45 264 -50 305 -10 11 12 5 16 -43 26 -126 26 -252
119 -306 226 -21 41 -25 63 -25 139 0 78 4 98 27 145 15 31 43 74 63 97 19 23
35 44 35 47 0 12 -36 5 -77 -15z"/>
</g>
</svg>
